<mxfile host="Electron" agent="Mozilla/5.0 (Windows NT 10.0; Win64; x64) AppleWebKit/537.36 (KHTML, like Gecko) draw.io/24.7.8 Chrome/128.0.6613.36 Electron/32.0.1 Safari/537.36" version="24.7.8">
  <diagram name="Página-1" id="GHgZA-d8oFRV5ikbvIdR">
    <mxGraphModel dx="1629" dy="1351" grid="0" gridSize="10" guides="1" tooltips="1" connect="1" arrows="1" fold="1" page="0" pageScale="1" pageWidth="1169" pageHeight="827" math="0" shadow="0">
      <root>
        <mxCell id="0" />
        <mxCell id="1" parent="0" />
        <mxCell id="gw6iVupfn1WJRU-eBHMO-3" value="" style="edgeStyle=none;curved=1;rounded=0;orthogonalLoop=1;jettySize=auto;html=1;fontSize=12;startSize=8;endSize=8;" edge="1" parent="1" source="gw6iVupfn1WJRU-eBHMO-1" target="gw6iVupfn1WJRU-eBHMO-2">
          <mxGeometry relative="1" as="geometry" />
        </mxCell>
        <mxCell id="gw6iVupfn1WJRU-eBHMO-1" value="" style="ellipse;whiteSpace=wrap;html=1;aspect=fixed;" vertex="1" parent="1">
          <mxGeometry x="-172" y="92" width="80" height="80" as="geometry" />
        </mxCell>
        <mxCell id="gw6iVupfn1WJRU-eBHMO-6" value="" style="edgeStyle=none;curved=1;rounded=0;orthogonalLoop=1;jettySize=auto;html=1;fontSize=12;startSize=8;endSize=8;" edge="1" parent="1" source="gw6iVupfn1WJRU-eBHMO-2" target="gw6iVupfn1WJRU-eBHMO-5">
          <mxGeometry relative="1" as="geometry" />
        </mxCell>
        <mxCell id="gw6iVupfn1WJRU-eBHMO-2" value="Cotización" style="rounded=1;whiteSpace=wrap;html=1;" vertex="1" parent="1">
          <mxGeometry x="25" y="102" width="120" height="60" as="geometry" />
        </mxCell>
        <mxCell id="gw6iVupfn1WJRU-eBHMO-4" value="&lt;h1 style=&quot;margin-top: 0px;&quot;&gt;Cotización&lt;/h1&gt;&lt;div&gt;El proceso inicia con la cotización para el cliente, esta cotización incluye el detalle de los productos, servicios, cantidades, precios y condiciones de pago, esta cotización se puede enviar al cliente, para su revisión, y aprobacion,&amp;nbsp;&lt;/div&gt;" style="text;html=1;whiteSpace=wrap;overflow=hidden;rounded=0;" vertex="1" parent="1">
          <mxGeometry x="-148" y="-78" width="214" height="164" as="geometry" />
        </mxCell>
        <mxCell id="gw6iVupfn1WJRU-eBHMO-9" value="" style="edgeStyle=none;curved=1;rounded=0;orthogonalLoop=1;jettySize=auto;html=1;fontSize=12;startSize=8;endSize=8;" edge="1" parent="1" source="gw6iVupfn1WJRU-eBHMO-5" target="gw6iVupfn1WJRU-eBHMO-8">
          <mxGeometry relative="1" as="geometry" />
        </mxCell>
        <mxCell id="gw6iVupfn1WJRU-eBHMO-5" value="Orden de venta" style="rounded=1;whiteSpace=wrap;html=1;" vertex="1" parent="1">
          <mxGeometry x="215" y="102" width="120" height="60" as="geometry" />
        </mxCell>
        <mxCell id="gw6iVupfn1WJRU-eBHMO-7" value="&lt;h1 style=&quot;margin-top: 0px;&quot;&gt;Orden de venta&lt;/h1&gt;&lt;div&gt;Una vez que el cliente acepta la cotización, ese docuemnto se conviente el &quot;Orden de venta&quot;, Este documento formaliza el compromiso de vender los productos o servicios bajo las condiciones acordadas.&amp;nbsp;&lt;/div&gt;" style="text;html=1;whiteSpace=wrap;overflow=hidden;rounded=0;" vertex="1" parent="1">
          <mxGeometry x="145" y="-74" width="214" height="164" as="geometry" />
        </mxCell>
        <mxCell id="gw6iVupfn1WJRU-eBHMO-13" value="" style="edgeStyle=none;curved=1;rounded=0;orthogonalLoop=1;jettySize=auto;html=1;fontSize=12;startSize=8;endSize=8;" edge="1" parent="1" source="gw6iVupfn1WJRU-eBHMO-8" target="gw6iVupfn1WJRU-eBHMO-12">
          <mxGeometry relative="1" as="geometry" />
        </mxCell>
        <mxCell id="gw6iVupfn1WJRU-eBHMO-8" value="Entrega de productos o Servicios" style="rounded=1;whiteSpace=wrap;html=1;" vertex="1" parent="1">
          <mxGeometry x="416" y="102" width="120" height="60" as="geometry" />
        </mxCell>
        <mxCell id="gw6iVupfn1WJRU-eBHMO-10" value="&lt;h1 style=&quot;margin-top: 0px;&quot;&gt;Entrega&lt;/h1&gt;&lt;div&gt;Con la orden de venta confirmada, se procede a la entrega de los productos o servicios al cliente,&amp;nbsp;&amp;nbsp;&lt;/div&gt;" style="text;html=1;whiteSpace=wrap;overflow=hidden;rounded=0;" vertex="1" parent="1">
          <mxGeometry x="389" y="-78" width="214" height="164" as="geometry" />
        </mxCell>
        <mxCell id="gw6iVupfn1WJRU-eBHMO-16" value="" style="edgeStyle=none;curved=1;rounded=0;orthogonalLoop=1;jettySize=auto;html=1;fontSize=12;startSize=8;endSize=8;" edge="1" parent="1" source="gw6iVupfn1WJRU-eBHMO-12" target="gw6iVupfn1WJRU-eBHMO-15">
          <mxGeometry relative="1" as="geometry" />
        </mxCell>
        <mxCell id="gw6iVupfn1WJRU-eBHMO-12" value="Facturación" style="whiteSpace=wrap;html=1;rounded=1;" vertex="1" parent="1">
          <mxGeometry x="656" y="102" width="120" height="60" as="geometry" />
        </mxCell>
        <mxCell id="gw6iVupfn1WJRU-eBHMO-14" value="&lt;h1 style=&quot;margin-top: 0px;&quot;&gt;Facturación&lt;/h1&gt;&lt;div&gt;Despues de la entrega se genera la factura correspondiente, detalla los productos y/o servicios proporcionados, los impuestos aplicables y el total a pagar, En mexico , es esencial que esta factura cunpla con los requisitos del CFDI 4.0, para la facturacion electrónica.&amp;nbsp;&lt;/div&gt;" style="text;html=1;whiteSpace=wrap;overflow=hidden;rounded=0;" vertex="1" parent="1">
          <mxGeometry x="627" y="-76" width="214" height="164" as="geometry" />
        </mxCell>
        <mxCell id="gw6iVupfn1WJRU-eBHMO-15" value="Registro del pago" style="whiteSpace=wrap;html=1;rounded=1;" vertex="1" parent="1">
          <mxGeometry x="896" y="102" width="120" height="60" as="geometry" />
        </mxCell>
        <mxCell id="gw6iVupfn1WJRU-eBHMO-17" value="&lt;h1 style=&quot;margin-top: 0px;&quot;&gt;Registro del pago&lt;/h1&gt;&lt;div&gt;Al final se registra el pago del cliente, lo que completa el ciclo de ventas, Odoo permite conciliar estos pagos con las facturas emitidas, asegurando una contabilidad precisa.&amp;nbsp;&amp;nbsp;&lt;/div&gt;" style="text;html=1;whiteSpace=wrap;overflow=hidden;rounded=0;" vertex="1" parent="1">
          <mxGeometry x="865" y="-72" width="214" height="164" as="geometry" />
        </mxCell>
        <mxCell id="gw6iVupfn1WJRU-eBHMO-19" value="" style="endArrow=classic;html=1;rounded=0;fontSize=12;startSize=8;endSize=8;curved=1;exitX=0.5;exitY=1;exitDx=0;exitDy=0;entryX=0.5;entryY=1;entryDx=0;entryDy=0;" edge="1" parent="1" source="gw6iVupfn1WJRU-eBHMO-5" target="gw6iVupfn1WJRU-eBHMO-12">
          <mxGeometry width="50" height="50" relative="1" as="geometry">
            <mxPoint x="575" y="225" as="sourcePoint" />
            <mxPoint x="625" y="175" as="targetPoint" />
            <Array as="points">
              <mxPoint x="454" y="293" />
            </Array>
          </mxGeometry>
        </mxCell>
        <mxCell id="gw6iVupfn1WJRU-eBHMO-21" value="&lt;h1 style=&quot;margin-top: 0px;&quot;&gt;Relación&lt;/h1&gt;&lt;p&gt;La orden de venta es el acuerdo inicial con el cliente sobre lo que se va a vender y bajo que condiciones una vez que es entregado el producto o es birndado el servicio, , se emite la factura basada en la orden de venta, reflejando los detalles acordados y los impuestos, correspondientes.&lt;/p&gt;" style="text;html=1;whiteSpace=wrap;overflow=hidden;rounded=0;" vertex="1" parent="1">
          <mxGeometry x="406" y="255" width="180" height="220" as="geometry" />
        </mxCell>
        <mxCell id="gw6iVupfn1WJRU-eBHMO-22" value="" style="endArrow=classic;html=1;rounded=0;fontSize=12;startSize=8;endSize=8;curved=1;exitX=0.5;exitY=0;exitDx=0;exitDy=0;entryX=0.5;entryY=0;entryDx=0;entryDy=0;" edge="1" parent="1" source="gw6iVupfn1WJRU-eBHMO-14" target="gw6iVupfn1WJRU-eBHMO-17">
          <mxGeometry width="50" height="50" relative="1" as="geometry">
            <mxPoint x="775" y="-175" as="sourcePoint" />
            <mxPoint x="825" y="-225" as="targetPoint" />
            <Array as="points">
              <mxPoint x="835" y="-162" />
            </Array>
          </mxGeometry>
        </mxCell>
        <mxCell id="gw6iVupfn1WJRU-eBHMO-23" value="" style="endArrow=classic;html=1;rounded=0;fontSize=12;startSize=8;endSize=8;curved=1;exitX=0.75;exitY=0;exitDx=0;exitDy=0;entryX=0.25;entryY=0;entryDx=0;entryDy=0;" edge="1" parent="1" source="gw6iVupfn1WJRU-eBHMO-17" target="gw6iVupfn1WJRU-eBHMO-14">
          <mxGeometry width="50" height="50" relative="1" as="geometry">
            <mxPoint x="775" y="-175" as="sourcePoint" />
            <mxPoint x="825" y="-225" as="targetPoint" />
            <Array as="points">
              <mxPoint x="838" y="-245" />
            </Array>
          </mxGeometry>
        </mxCell>
        <mxCell id="gw6iVupfn1WJRU-eBHMO-24" value="&lt;h1 style=&quot;margin-top: 0px;&quot;&gt;Conciliación&lt;/h1&gt;&lt;p&gt;Relaciona las facturas emitidas con los registros de pago de los clientes.&lt;/p&gt;" style="text;html=1;whiteSpace=wrap;overflow=hidden;rounded=0;" vertex="1" parent="1">
          <mxGeometry x="738" y="-320" width="180" height="120" as="geometry" />
        </mxCell>
      </root>
    </mxGraphModel>
  </diagram>
</mxfile>
